<svg width="161" height="40" viewBox="0 0 161 40" fill="none" xmlns="http://www.w3.org/2000/svg">
<g clip-path="url(#clip0_4005_2)">
<path d="M2.0899 25.7158V29.4741C2.0899 31.7719 3.94534 33.6347 6.23414 33.6347H33.6074C35.8962 33.6347 37.7516 31.7719 37.7516 29.4741V25.7158H2.0899Z" fill="#F6A230"/>
<path d="M8.6125 18.2323H37.7583C37.7583 11.6783 32.4662 6.36523 25.9382 6.36523H13.9035C7.37554 6.36523 2.08337 11.6783 2.08337 18.2323H6.89347" fill="#F6A230"/>
<path d="M21.2186 25.7157L12.9435 30.2048L4.66833 25.7157H21.2186Z" fill="#FFE285"/>
<path d="M6.89359 18.2323H2.08987C1.45528 18.2323 0.940918 18.7487 0.940918 19.3857C0.940918 20.0228 1.45528 20.5393 2.08987 20.5393C5.06149 20.5393 5.06149 21.9714 8.03312 21.9714C11.0047 21.9714 11.0047 20.5393 13.9764 20.5393C16.9482 20.5393 16.9482 21.9714 19.9199 21.9714C19.9224 21.9714 19.9248 21.9713 19.9273 21.9713C19.9298 21.9713 19.9322 21.9714 19.9347 21.9714C22.9065 21.9714 22.9065 20.5393 25.8783 20.5393C28.8499 20.5393 28.8499 21.9714 31.8215 21.9714C34.7932 21.9714 34.7931 20.5393 37.7648 20.5393C38.3994 20.5393 38.9137 20.0228 38.9137 19.3857C38.9137 18.7487 38.3994 18.2323 37.7648 18.2323H19.9273H8.61246" fill="#08AA6E"/>
<path d="M37.088 20.5679C34.7746 20.7669 34.548 21.9715 31.8215 21.9715C28.85 21.9715 28.85 20.5394 25.8783 20.5394C22.9066 20.5394 22.9066 21.9715 19.9347 21.9715C19.9322 21.9715 19.9298 21.9714 19.9273 21.9714C19.9249 21.9714 19.9224 21.9715 19.9199 21.9715C16.9482 21.9715 16.9482 20.5394 13.9764 20.5394C11.0047 20.5394 11.0047 21.9715 8.03313 21.9715C5.30328 21.9715 5.07948 20.7638 2.75769 20.5672C1.5296 20.7665 0.591614 21.8354 0.591614 23.1247C0.591614 24.5558 1.74718 25.7159 3.17261 25.7159H36.6688C38.0943 25.7159 39.2498 24.5558 39.2498 23.1247C39.2499 21.8368 38.3141 20.7689 37.088 20.5679Z" fill="#D53349"/>
<path d="M39.8416 23.1246C39.8416 22.1996 39.4527 21.3607 38.8179 20.776C39.2353 20.4565 39.5054 19.9524 39.5054 19.3858C39.5054 18.6243 39.0175 17.9753 38.3392 17.7365C38.079 11.0944 32.6166 5.77112 25.9382 5.77112H13.9035C7.22355 5.77112 1.76027 11.0967 1.50215 17.741C0.830761 17.9836 0.349237 18.6292 0.349237 19.3858C0.349237 19.9489 0.616145 20.4503 1.02942 20.7702C0.39118 21.3549 0 22.1962 0 23.1246C0 24.2642 0.59957 25.2653 1.49819 25.8284V29.4741C1.49819 32.0959 3.62271 34.2288 6.23413 34.2288H33.6074C36.2188 34.2288 38.3433 32.0958 38.3433 29.4741V25.8284C39.2421 25.2653 39.8416 24.2642 39.8416 23.1246ZM13.9035 6.95917H25.9382C31.9311 6.95917 36.8425 11.6971 37.1511 17.6381H8.61249L8.61241 18.8263H37.7648C38.0721 18.8263 38.3221 19.0772 38.3221 19.3856C38.3221 19.6942 38.0721 19.9452 37.7648 19.9452C37.5316 19.9452 37.3148 19.954 37.1114 19.9696L37.1108 19.9695L37.0972 19.9706C35.8955 20.0655 35.1796 20.4101 34.5371 20.7197C33.8049 21.0725 33.1727 21.3772 31.8216 21.3772C31.6527 21.3772 31.4951 21.3724 31.3471 21.3635C30.3109 21.3003 29.7468 21.0284 29.1062 20.7197C28.3529 20.3567 27.4989 19.9451 25.8785 19.9451C25.5746 19.9451 25.2977 19.9596 25.0434 19.9855C23.9412 20.0978 23.2628 20.4246 22.6506 20.7197C22.4734 20.8051 22.302 20.8875 22.1248 20.9637C21.5781 21.1986 20.9755 21.3717 19.9777 21.3767C19.9638 21.3767 19.9508 21.3772 19.9367 21.3772L19.9274 21.3771L19.912 21.3772C19.8746 21.3771 19.8398 21.376 19.8035 21.3756C19.7581 21.3749 19.7117 21.3749 19.6678 21.3735C19.6556 21.3731 19.6445 21.3724 19.6324 21.3719C19.099 21.3532 18.6846 21.2828 18.3275 21.18C17.9101 21.0598 17.5697 20.8957 17.2044 20.7197C16.451 20.3567 15.5971 19.9451 13.9765 19.9451C12.356 19.9451 11.5021 20.3566 10.7488 20.7197C10.1081 21.0284 9.54394 21.3003 8.50782 21.3635C8.35982 21.3725 8.20216 21.3772 8.03331 21.3772C6.68219 21.3772 6.04986 21.0725 5.31785 20.7197C4.674 20.4095 3.95631 20.064 2.74985 19.9701L2.73522 19.9689L2.73468 19.9689C2.53384 19.9537 2.32 19.9452 2.09021 19.9452C1.78291 19.9452 1.53297 19.6942 1.53297 19.3856C1.53297 19.0772 1.78291 18.8263 2.09021 18.8263H6.89377L6.89385 17.6381H2.69056C2.9991 11.6972 7.91051 6.95917 13.9035 6.95917ZM18.8786 26.3098L12.9435 29.5296L7.00824 26.3099H18.8786V26.3098ZM37.16 26.3098V27.7103H24.5393V28.8984H37.16V29.4741C37.16 31.4407 35.5663 33.0406 33.6074 33.0406H6.23421C4.27535 33.0406 2.68169 31.4407 2.68169 29.4741V26.3098H3.1727H4.51876L12.9435 30.88L21.3681 26.3098H36.6689H37.16ZM36.6689 25.1217H23.5582L23.5584 25.1216H3.16967C2.0741 25.1199 1.18342 24.2247 1.18342 23.1245C1.18342 22.1628 1.85217 21.35 2.78339 21.1657C3.68761 21.2536 4.23061 21.515 4.80458 21.7914C5.51075 22.1314 6.30533 22.5136 7.73535 22.5606C7.83168 22.5638 7.93082 22.5654 8.03307 22.5654C9.65351 22.5654 10.5074 22.1539 11.2607 21.7909C11.9929 21.438 12.6251 21.1333 13.9763 21.1333C14.3141 21.1333 14.607 21.1524 14.8678 21.1864C14.9982 21.2035 15.1204 21.2243 15.2364 21.2483C15.2943 21.2603 15.3507 21.2731 15.4056 21.2868C15.9 21.4091 16.2803 21.5924 16.6921 21.7909C17.1865 22.0292 17.7242 22.2882 18.4934 22.4382C18.6033 22.4596 18.7179 22.4788 18.8379 22.4954C18.9178 22.5065 19.0001 22.5164 19.0848 22.525C19.3391 22.551 19.616 22.5654 19.9199 22.5654H19.9347C20.2892 22.5654 20.6071 22.5457 20.8952 22.5111C21.883 22.3926 22.5214 22.0992 23.0917 21.8249C23.1154 21.8135 23.139 21.8021 23.1625 21.7908C23.8947 21.438 24.527 21.1333 25.8782 21.1333C26.216 21.1333 26.5089 21.1524 26.7696 21.1864C26.9 21.2035 27.0223 21.2243 27.1382 21.2483C27.1961 21.2603 27.2525 21.2731 27.3075 21.2868C27.8018 21.4091 28.182 21.5924 28.5938 21.7909C29.0883 22.0292 29.6259 22.2882 30.3951 22.4382C30.505 22.4596 30.6196 22.4788 30.7395 22.4954C30.8195 22.5065 30.9018 22.5164 30.9865 22.525C31.2408 22.551 31.5176 22.5654 31.8215 22.5654C31.9228 22.5654 32.021 22.5639 32.1165 22.5606C33.5483 22.5142 34.3433 22.1314 35.05 21.7913C35.6222 21.5159 36.1634 21.2553 37.0621 21.1666C37.9911 21.3524 38.6581 22.1647 38.6581 23.1244C38.6582 24.2257 37.7658 25.1217 36.6689 25.1217Z" fill="#53180F"/>
<path d="M14.9832 8.35962H13.1352V9.54774H14.9832V8.35962Z" fill="#53180F"/>
<path d="M17.9142 10.9481H16.0662V12.1362H17.9142V10.9481Z" fill="#53180F"/>
<path d="M12.0515 10.9481H10.2034V12.1362H12.0515V10.9481Z" fill="#53180F"/>
<path d="M29.638 10.9481H27.7899V12.1362H29.638V10.9481Z" fill="#53180F"/>
<path d="M23.776 10.9481H21.928V12.1362H23.776V10.9481Z" fill="#53180F"/>
<path d="M20.8452 8.35962H18.9971V9.54774H20.8452V8.35962Z" fill="#53180F"/>
<path d="M26.707 8.35962H24.8589V9.54774H26.707V8.35962Z" fill="#53180F"/>
</g>
<path d="M53.5637 22.33C54.4597 21.5553 55.1643 20.9207 55.6777 20.426C56.2003 19.922 56.6343 19.3993 56.9797 18.858C57.325 18.3167 57.4977 17.7753 57.4977 17.234C57.4977 16.674 57.3623 16.2353 57.0917 15.918C56.8303 15.6007 56.415 15.442 55.8457 15.442C55.295 15.442 54.8657 15.6193 54.5577 15.974C54.259 16.3193 54.1003 16.786 54.0817 17.374H52.5417C52.5697 16.31 52.887 15.498 53.4937 14.938C54.1097 14.3687 54.889 14.084 55.8317 14.084C56.849 14.084 57.6423 14.364 58.2117 14.924C58.7903 15.484 59.0797 16.2307 59.0797 17.164C59.0797 17.836 58.907 18.4847 58.5617 19.11C58.2257 19.726 57.8197 20.2813 57.3437 20.776C56.877 21.2613 56.2797 21.826 55.5517 22.47L54.9217 23.03H59.3597V24.36H52.5557V23.198L53.5637 22.33ZM60.7618 19.264C60.7618 17.6493 61.0324 16.3893 61.5738 15.484C62.1244 14.5693 63.0671 14.112 64.4018 14.112C65.7364 14.112 66.6744 14.5693 67.2158 15.484C67.7664 16.3893 68.0418 17.6493 68.0418 19.264C68.0418 20.8973 67.7664 22.176 67.2158 23.1C66.6744 24.0147 65.7364 24.472 64.4018 24.472C63.0671 24.472 62.1244 24.0147 61.5738 23.1C61.0324 22.176 60.7618 20.8973 60.7618 19.264ZM66.4738 19.264C66.4738 18.508 66.4224 17.8687 66.3198 17.346C66.2264 16.8233 66.0304 16.3987 65.7318 16.072C65.4331 15.736 64.9898 15.568 64.4018 15.568C63.8138 15.568 63.3704 15.736 63.0718 16.072C62.7731 16.3987 62.5724 16.8233 62.4698 17.346C62.3764 17.8687 62.3298 18.508 62.3298 19.264C62.3298 20.048 62.3764 20.706 62.4698 21.238C62.5631 21.77 62.7591 22.1993 63.0578 22.526C63.3658 22.8527 63.8138 23.016 64.4018 23.016C64.9898 23.016 65.4331 22.8527 65.7318 22.526C66.0398 22.1993 66.2404 21.77 66.3338 21.238C66.4271 20.706 66.4738 20.048 66.4738 19.264ZM70.6125 22.33C71.5085 21.5553 72.2132 20.9207 72.7265 20.426C73.2492 19.922 73.6832 19.3993 74.0285 18.858C74.3738 18.3167 74.5465 17.7753 74.5465 17.234C74.5465 16.674 74.4112 16.2353 74.1405 15.918C73.8792 15.6007 73.4638 15.442 72.8945 15.442C72.3438 15.442 71.9145 15.6193 71.6065 15.974C71.3078 16.3193 71.1492 16.786 71.1305 17.374H69.5905C69.6185 16.31 69.9358 15.498 70.5425 14.938C71.1585 14.3687 71.9378 14.084 72.8805 14.084C73.8978 14.084 74.6912 14.364 75.2605 14.924C75.8392 15.484 76.1285 16.2307 76.1285 17.164C76.1285 17.836 75.9558 18.4847 75.6105 19.11C75.2745 19.726 74.8685 20.2813 74.3925 20.776C73.9258 21.2613 73.3285 21.826 72.6005 22.47L71.9705 23.03H76.4085V24.36H69.6045V23.198L70.6125 22.33ZM77.6146 22.372V21.168L82.3186 14.42H84.2506V20.986H85.5526V22.372H84.2506V24.5H82.6826V22.372H77.6146ZM82.7526 16.044L79.4486 20.986H82.7526V16.044ZM95.2018 14.644C96.1538 14.644 96.9984 14.8587 97.7358 15.288C98.4731 15.708 99.0471 16.296 99.4578 17.052C99.8684 17.808 100.074 18.6667 100.074 19.628C100.074 20.5893 99.8684 21.4527 99.4578 22.218C99.0471 22.974 98.4731 23.5667 97.7358 23.996C96.9984 24.416 96.1538 24.626 95.2018 24.626C94.2498 24.626 93.4004 24.416 92.6538 23.996C91.9164 23.5667 91.3424 22.974 90.9318 22.218C90.5211 21.4527 90.3158 20.5893 90.3158 19.628C90.3158 18.6667 90.5211 17.808 90.9318 17.052C91.3424 16.296 91.9164 15.708 92.6538 15.288C93.4004 14.8587 94.2498 14.644 95.2018 14.644ZM95.2018 15.288C94.3524 15.288 93.6104 15.4653 92.9758 15.82C92.3504 16.1747 91.8651 16.6833 91.5198 17.346C91.1838 17.9993 91.0158 18.76 91.0158 19.628C91.0158 20.496 91.1838 21.2567 91.5198 21.91C91.8651 22.5633 92.3504 23.072 92.9758 23.436C93.6104 23.8 94.3524 23.982 95.2018 23.982C96.0418 23.982 96.7744 23.8 97.3998 23.436C98.0344 23.072 98.5198 22.5633 98.8558 21.91C99.2011 21.2567 99.3738 20.496 99.3738 19.628C99.3738 18.76 99.2011 17.9993 98.8558 17.346C98.5198 16.6833 98.0391 16.1747 97.4138 15.82C96.7884 15.4653 96.0511 15.288 95.2018 15.288ZM95.1598 16.408C94.5904 16.408 94.0724 16.5433 93.6058 16.814C93.1391 17.0753 92.7704 17.4487 92.4998 17.934C92.2384 18.4193 92.1078 18.9793 92.1078 19.614C92.1078 20.2487 92.2431 20.8133 92.5138 21.308C92.7844 21.7933 93.1484 22.1713 93.6058 22.442C94.0724 22.7033 94.5904 22.834 95.1598 22.834C95.8691 22.834 96.4804 22.6473 96.9938 22.274C97.5071 21.8913 97.8524 21.392 98.0298 20.776H96.5738C96.4524 21.0747 96.2798 21.3033 96.0558 21.462C95.8318 21.6207 95.5331 21.7 95.1598 21.7C94.6651 21.7 94.2684 21.5227 93.9698 21.168C93.6711 20.804 93.5218 20.286 93.5218 19.614C93.5218 18.942 93.6711 18.4287 93.9698 18.074C94.2684 17.7193 94.6651 17.542 95.1598 17.542C95.5144 17.542 95.8131 17.6213 96.0558 17.78C96.3078 17.9387 96.4804 18.1673 96.5738 18.466H98.0298C97.8524 17.8127 97.5118 17.3087 97.0078 16.954C96.5038 16.59 95.8878 16.408 95.1598 16.408ZM111.131 14.77V16.072H107.001V18.942H110.221V20.244H107.001V24.5H105.405V14.77H111.131ZM112.078 20.608C112.078 19.8333 112.237 19.1473 112.554 18.55C112.881 17.9527 113.32 17.4907 113.87 17.164C114.43 16.828 115.046 16.66 115.718 16.66C116.325 16.66 116.852 16.7813 117.3 17.024C117.758 17.2573 118.122 17.5513 118.392 17.906V16.786H120.002V24.5H118.392V23.352C118.122 23.716 117.753 24.0193 117.286 24.262C116.82 24.5047 116.288 24.626 115.69 24.626C115.028 24.626 114.421 24.458 113.87 24.122C113.32 23.7767 112.881 23.3007 112.554 22.694C112.237 22.078 112.078 21.3827 112.078 20.608ZM118.392 20.636C118.392 20.104 118.28 19.642 118.056 19.25C117.842 18.858 117.557 18.5593 117.202 18.354C116.848 18.1487 116.465 18.046 116.054 18.046C115.644 18.046 115.261 18.1487 114.906 18.354C114.552 18.55 114.262 18.844 114.038 19.236C113.824 19.6187 113.716 20.076 113.716 20.608C113.716 21.14 113.824 21.6067 114.038 22.008C114.262 22.4093 114.552 22.7173 114.906 22.932C115.27 23.1373 115.653 23.24 116.054 23.24C116.465 23.24 116.848 23.1373 117.202 22.932C117.557 22.7267 117.842 22.428 118.056 22.036C118.28 21.6347 118.392 21.168 118.392 20.636ZM123.961 18.088V22.358C123.961 22.6473 124.026 22.8573 124.157 22.988C124.297 23.1093 124.53 23.17 124.857 23.17H125.837V24.5H124.577C123.858 24.5 123.307 24.332 122.925 23.996C122.542 23.66 122.351 23.114 122.351 22.358V18.088H121.441V16.786H122.351V14.868H123.961V16.786H125.837V18.088H123.961ZM133.034 14.77V16.072H128.904V18.942H132.124V20.244H128.904V24.5H127.308V14.77H133.034ZM137.859 24.626C137.131 24.626 136.473 24.4627 135.885 24.136C135.297 23.8 134.835 23.3333 134.499 22.736C134.163 22.1293 133.995 21.4293 133.995 20.636C133.995 19.852 134.167 19.1567 134.513 18.55C134.858 17.9433 135.329 17.4767 135.927 17.15C136.524 16.8233 137.191 16.66 137.929 16.66C138.666 16.66 139.333 16.8233 139.931 17.15C140.528 17.4767 140.999 17.9433 141.345 18.55C141.69 19.1567 141.863 19.852 141.863 20.636C141.863 21.42 141.685 22.1153 141.331 22.722C140.976 23.3287 140.491 23.8 139.875 24.136C139.268 24.4627 138.596 24.626 137.859 24.626ZM137.859 23.24C138.269 23.24 138.652 23.142 139.007 22.946C139.371 22.75 139.665 22.456 139.889 22.064C140.113 21.672 140.225 21.196 140.225 20.636C140.225 20.076 140.117 19.6047 139.903 19.222C139.688 18.83 139.403 18.536 139.049 18.34C138.694 18.144 138.311 18.046 137.901 18.046C137.49 18.046 137.107 18.144 136.753 18.34C136.407 18.536 136.132 18.83 135.927 19.222C135.721 19.6047 135.619 20.076 135.619 20.636C135.619 21.4667 135.829 22.1107 136.249 22.568C136.678 23.016 137.215 23.24 137.859 23.24ZM146.787 24.626C146.059 24.626 145.401 24.4627 144.813 24.136C144.225 23.8 143.763 23.3333 143.427 22.736C143.091 22.1293 142.923 21.4293 142.923 20.636C142.923 19.852 143.095 19.1567 143.441 18.55C143.786 17.9433 144.257 17.4767 144.855 17.15C145.452 16.8233 146.119 16.66 146.857 16.66C147.594 16.66 148.261 16.8233 148.859 17.15C149.456 17.4767 149.927 17.9433 150.273 18.55C150.618 19.1567 150.791 19.852 150.791 20.636C150.791 21.42 150.613 22.1153 150.259 22.722C149.904 23.3287 149.419 23.8 148.803 24.136C148.196 24.4627 147.524 24.626 146.787 24.626ZM146.787 23.24C147.197 23.24 147.58 23.142 147.935 22.946C148.299 22.75 148.593 22.456 148.817 22.064C149.041 21.672 149.153 21.196 149.153 20.636C149.153 20.076 149.045 19.6047 148.831 19.222C148.616 18.83 148.331 18.536 147.977 18.34C147.622 18.144 147.239 18.046 146.829 18.046C146.418 18.046 146.035 18.144 145.681 18.34C145.335 18.536 145.06 18.83 144.855 19.222C144.649 19.6047 144.547 20.076 144.547 20.636C144.547 21.4667 144.757 22.1107 145.177 22.568C145.606 23.016 146.143 23.24 146.787 23.24ZM151.836 20.608C151.836 19.8333 151.995 19.1473 152.312 18.55C152.639 17.9527 153.078 17.4907 153.628 17.164C154.188 16.828 154.809 16.66 155.49 16.66C155.994 16.66 156.489 16.772 156.974 16.996C157.469 17.2107 157.861 17.5 158.15 17.864V14.14H159.76V24.5H158.15V23.338C157.889 23.7113 157.525 24.0193 157.058 24.262C156.601 24.5047 156.074 24.626 155.476 24.626C154.804 24.626 154.188 24.458 153.628 24.122C153.078 23.7767 152.639 23.3007 152.312 22.694C151.995 22.078 151.836 21.3827 151.836 20.608ZM158.15 20.636C158.15 20.104 158.038 19.642 157.814 19.25C157.6 18.858 157.315 18.5593 156.96 18.354C156.606 18.1487 156.223 18.046 155.812 18.046C155.402 18.046 155.019 18.1487 154.664 18.354C154.31 18.55 154.02 18.844 153.796 19.236C153.582 19.6187 153.474 20.076 153.474 20.608C153.474 21.14 153.582 21.6067 153.796 22.008C154.02 22.4093 154.31 22.7173 154.664 22.932C155.028 23.1373 155.411 23.24 155.812 23.24C156.223 23.24 156.606 23.1373 156.96 22.932C157.315 22.7267 157.6 22.428 157.814 22.036C158.038 21.6347 158.15 21.168 158.15 20.636Z" fill="white"/>
<defs>
<clipPath id="clip0_4005_2">
<rect width="39.8416" height="40" fill="white"/>
</clipPath>
</defs>
</svg>
