<svg width="268" height="80" viewBox="0 0 268 80" fill="none" xmlns="http://www.w3.org/2000/svg">
<g clip-path="url(#clip0_4002_87)">
<path d="M4.39827 51.4315V58.9481C4.39827 63.5437 8.10914 67.2694 12.6867 67.2694H67.4332C72.0108 67.2694 75.7217 63.5437 75.7217 58.9481V51.4315H4.39827Z" fill="#F6A230"/>
<path d="M17.4435 36.4647H75.7351C75.7351 23.3566 65.1509 12.7305 52.0948 12.7305H28.0255C14.9696 12.7305 4.38522 23.3566 4.38522 36.4647H14.0054" fill="#F6A230"/>
<path d="M42.6558 51.4314L26.1055 60.4097L9.55515 51.4314H42.6558Z" fill="#FFE285"/>
<path d="M14.0057 36.4647H4.3983C3.12913 36.4647 2.1004 37.4975 2.1004 38.7716C2.1004 40.0458 3.12913 41.0788 4.3983 41.0788C10.3416 41.0788 10.3416 43.943 16.2848 43.943C22.2281 43.943 22.2279 41.0788 28.1713 41.0788C34.1149 41.0788 34.1149 43.943 40.0584 43.943C40.0634 43.943 40.0682 43.9427 40.0732 43.9427C40.0782 43.9427 40.083 43.943 40.088 43.943C46.0316 43.943 46.0316 41.0788 51.9751 41.0788C57.9184 41.0788 57.9184 43.943 63.8616 43.943C69.8049 43.943 69.8047 41.0788 75.7481 41.0788C77.0173 41.0788 78.046 40.0458 78.046 38.7716C78.046 37.4975 77.0173 36.4647 75.7481 36.4647H40.0732H17.4435" fill="#08AA6E"/>
<path d="M74.3946 41.1356C69.7677 41.5336 69.3145 43.943 63.8616 43.943C57.9186 43.943 57.9186 41.0787 51.9751 41.0787C46.0317 41.0787 46.0317 43.943 40.088 43.943C40.083 43.943 40.0782 43.9426 40.0732 43.9426C40.0683 43.9426 40.0634 43.943 40.0584 43.943C34.115 43.943 34.115 41.0787 28.1713 41.0787C22.2279 41.0787 22.2279 43.943 16.2848 43.943C10.8251 43.943 10.3775 41.5275 5.73394 41.1342C3.27776 41.5328 1.40178 43.6706 1.40178 46.2492C1.40178 49.1114 3.71291 51.4317 6.56376 51.4317H73.5562C76.4071 51.4317 78.7182 49.1114 78.7182 46.2492C78.7184 43.6734 76.8468 41.5376 74.3946 41.1356Z" fill="#D53349"/>
<path d="M79.9018 46.2492C79.9018 44.3994 79.1239 42.7216 77.8543 41.5522C78.6891 40.9131 79.2293 39.9049 79.2293 38.7717C79.2293 37.2488 78.2535 35.9508 76.8969 35.4731C76.3764 22.1889 65.4517 11.5424 52.0948 11.5424H28.0255C14.6656 11.5424 3.73904 22.1936 3.22282 35.4822C1.88003 35.9674 0.91698 37.2585 0.91698 38.7717C0.91698 39.898 1.4508 40.9008 2.27735 41.5405C1.00087 42.71 0.218506 44.3925 0.218506 46.2492C0.218506 48.5286 1.41765 50.5308 3.21488 51.6569V58.9483C3.21488 64.1919 7.46393 68.4577 12.6868 68.4577H67.4332C72.6561 68.4577 76.9051 64.1917 76.9051 58.9483V51.6569C78.7027 50.5306 79.9018 48.5285 79.9018 46.2492ZM28.0255 13.9185H52.0948C64.0806 13.9185 73.9036 23.3942 74.5207 35.2764H17.4435L17.4433 37.6527H75.7481C76.3627 37.6527 76.8626 38.1545 76.8626 38.7714C76.8626 39.3885 76.3627 39.8905 75.7481 39.8905C75.2817 39.8905 74.8481 39.9081 74.4413 39.9394L74.4401 39.9391L74.413 39.9414C72.0096 40.1311 70.5776 40.8203 69.2927 41.4395C67.8284 42.1452 66.5639 42.7545 63.8618 42.7545C63.5239 42.7545 63.2088 42.745 62.9128 42.727C60.8404 42.6008 59.712 42.0569 58.4309 41.4395C56.9242 40.7135 55.2163 39.8903 51.9754 39.8903C51.3677 39.8903 50.814 39.9194 50.3052 39.9711C48.1008 40.1956 46.744 40.8494 45.5197 41.4395C45.1653 41.6103 44.8225 41.7752 44.4681 41.9275C43.3746 42.3974 42.1694 42.7435 40.1739 42.7535C40.1461 42.7536 40.1201 42.7545 40.0919 42.7545L40.0734 42.7542L40.0426 42.7545C39.9677 42.7544 39.8981 42.7522 39.8255 42.7513C39.7347 42.75 39.6418 42.7499 39.5542 42.7472C39.5298 42.7464 39.5075 42.7449 39.4834 42.7439C38.4165 42.7066 37.5878 42.5658 36.8736 42.3602C36.0388 42.1197 35.3579 41.7916 34.6272 41.4395C33.1205 40.7135 31.4128 39.8903 28.1715 39.8903C24.9304 39.8903 23.2227 40.7133 21.716 41.4395C20.4347 42.0569 19.3064 42.6008 17.2342 42.727C16.9381 42.7452 16.6228 42.7545 16.2851 42.7545C13.5829 42.7545 12.3182 42.1452 10.8542 41.4395C9.56651 40.8191 8.13112 40.1281 5.71821 39.9403L5.68895 39.9378L5.68786 39.938C5.28618 39.9075 4.8585 39.8905 4.39892 39.8905C3.78433 39.8905 3.28445 39.3885 3.28445 38.7714C3.28445 38.1545 3.78433 37.6527 4.39892 37.6527H14.0061L14.0062 35.2764H5.59962C6.2167 23.3945 16.0395 13.9185 28.0255 13.9185ZM37.9758 52.6197L26.1055 59.0594L14.235 52.6199H37.9758V52.6197ZM74.5386 52.6197V55.4206H49.2972V57.7969H74.5384V58.9483C74.5384 62.8816 71.3511 66.0814 67.4334 66.0814H12.6869C8.76921 66.0814 5.58188 62.8814 5.58188 58.9483V52.6197H6.56391H9.25602L26.1055 61.7602L42.9547 52.6197H73.5564H74.5386ZM73.5564 50.2435H47.335L47.3353 50.2433H6.55784C4.36671 50.24 2.58535 48.4495 2.58535 46.2491C2.58535 44.3258 3.92285 42.7002 5.78529 42.3316C7.59372 42.5074 8.67972 43.0302 9.82766 43.5828C11.24 44.2628 12.8292 45.0274 15.6892 45.1213C15.8819 45.1277 16.0801 45.131 16.2846 45.131C19.5255 45.131 21.2333 44.308 22.7399 43.5819C24.2043 42.8761 25.4688 42.2667 28.1712 42.2667C28.8468 42.2667 29.4325 42.3049 29.9541 42.373C30.2149 42.407 30.4594 42.4488 30.6913 42.4967C30.8071 42.5208 30.9199 42.5464 31.0298 42.5738C32.0185 42.8183 32.7791 43.1849 33.6027 43.5819C34.5916 44.0585 35.6668 44.5766 37.2054 44.8764C37.4252 44.9194 37.6544 44.9577 37.8942 44.991C38.0541 45.0131 38.2187 45.033 38.388 45.0502C38.8968 45.102 39.4505 45.131 40.0583 45.131H40.088C40.7969 45.131 41.4327 45.0916 42.0088 45.0224C43.9846 44.7853 45.2613 44.1986 46.4018 43.65C46.4493 43.6272 46.4966 43.6044 46.5436 43.5817C48.0079 42.8761 49.2726 42.2667 51.975 42.2667C52.6506 42.2667 53.2364 42.3049 53.7577 42.373C54.0184 42.407 54.2631 42.4488 54.495 42.4967C54.6108 42.5208 54.7236 42.5464 54.8335 42.5738C55.8222 42.8183 56.5826 43.1849 57.4062 43.5819C58.3951 44.0585 59.4703 44.5766 61.0088 44.8764C61.2285 44.9194 61.4578 44.9577 61.6976 44.991C61.8574 45.0131 62.0221 45.033 62.1914 45.0502C62.7002 45.102 63.2537 45.131 63.8615 45.131C64.0641 45.131 64.2605 45.1278 64.4515 45.1214C67.3151 45.0285 68.905 44.263 70.3185 43.5827C71.4628 43.0319 72.5452 42.5108 74.3428 42.3333C76.2007 42.7049 77.5348 44.3295 77.5348 46.2489C77.535 48.4516 75.7502 50.2435 73.5564 50.2435Z" fill="#53180F"/>
<path d="M30.185 16.7194H26.4889V19.0956H30.185V16.7194Z" fill="#53180F"/>
<path d="M36.0469 21.8964H32.3508V24.2727H36.0469V21.8964Z" fill="#53180F"/>
<path d="M24.3215 21.8964H20.6254V24.2727H24.3215V21.8964Z" fill="#53180F"/>
<path d="M59.4945 21.8964H55.7984V24.2727H59.4945V21.8964Z" fill="#53180F"/>
<path d="M47.7706 21.8964H44.0745V24.2727H47.7706V21.8964Z" fill="#53180F"/>
<path d="M41.9089 16.7194H38.2126V19.0956H41.9089V16.7194Z" fill="#53180F"/>
<path d="M53.6325 16.7194H49.9364V19.0956H53.6325V16.7194Z" fill="#53180F"/>
</g>
<path d="M246.024 57.9939C244.88 57.9939 243.8 57.5952 242.783 56.7977C241.798 56.0002 240.988 54.8358 240.353 53.3046C239.749 51.7734 239.447 49.9232 239.447 47.7539C239.447 45.5209 239.765 43.5272 240.4 41.7726C241.036 40.0181 241.862 38.5348 242.879 37.3225C243.927 36.0784 245.055 35.1374 246.263 34.4994C247.502 33.8614 248.709 33.5424 249.885 33.5424C251.188 33.5424 252.347 33.9571 253.364 34.7865C254.381 35.584 255.08 36.844 255.461 38.5667C255.747 36.9716 255.985 35.4564 256.176 34.0209C256.399 32.5534 256.51 31.2615 256.51 30.145C256.51 28.6776 256.319 27.6089 255.938 26.939V26.6519C256.669 25.8225 257.463 25.2164 258.321 24.8336C259.211 24.4189 260.053 24.2115 260.847 24.2115C261.895 24.2115 262.785 24.5465 263.516 25.2164C264.247 25.8544 264.612 26.7795 264.612 27.9917C264.612 28.6616 264.501 29.6505 264.279 30.9584C264.056 32.2663 263.786 33.7657 263.468 35.4564C263.151 37.1152 262.817 38.8378 262.467 40.6242C262.15 42.3787 261.88 44.0695 261.657 45.6964C261.435 47.2914 261.324 48.6791 261.324 49.8594C261.324 50.8483 261.419 51.6458 261.609 52.2519C261.832 52.8261 262.181 53.1132 262.658 53.1132C263.008 53.1132 263.357 53.0015 263.707 52.7782C264.088 52.523 264.342 52.2359 264.469 51.9169L264.803 52.1562C264.803 53.2089 264.469 54.1819 263.802 55.0751C263.135 55.9364 262.293 56.6382 261.276 57.1805C260.259 57.7228 259.211 57.9939 258.13 57.9939C256.955 57.9939 256.017 57.6749 255.318 57.0369C254.651 56.367 254.174 55.5217 253.888 54.5009C253.602 53.4801 253.444 52.4273 253.412 51.3427C252.427 53.6396 251.267 55.3303 249.933 56.4149C248.63 57.4676 247.327 57.9939 246.024 57.9939ZM249.218 51.9169C250.044 51.9169 250.965 51.1673 251.982 49.668C252.999 48.1687 253.888 45.9835 254.651 43.1124L254.937 41.6291C254.429 40.4488 253.873 39.6194 253.269 39.1409C252.697 38.6305 252.141 38.3753 251.601 38.3753C250.806 38.3753 250.06 38.8219 249.361 39.7151C248.662 40.5764 248.09 41.6929 247.645 43.0646C247.232 44.4044 247.025 45.824 247.025 47.3233C247.025 48.7588 247.232 49.8913 247.645 50.7207C248.058 51.5182 248.582 51.9169 249.218 51.9169Z" fill="#D53349"/>
<path d="M222.696 58.1375C220.313 58.1375 218.343 57.659 216.787 56.702C215.23 55.745 214.07 54.4849 213.307 52.9218C212.576 51.3268 212.211 49.6361 212.211 47.8496C212.211 46.1589 212.513 44.4682 213.117 42.7775C213.752 41.0868 214.658 39.5556 215.833 38.1839C217.041 36.7802 218.502 35.6637 220.218 34.8343C221.934 33.973 223.904 33.5424 226.128 33.5424C228.511 33.5424 230.465 34.0368 231.99 35.0257C233.547 35.9827 234.691 37.2587 235.422 38.8538C236.185 40.4488 236.566 42.1554 236.566 43.9738C236.566 45.6326 236.264 47.3073 235.66 48.9981C235.057 50.6569 234.151 52.1881 232.944 53.5917C231.768 54.9634 230.322 56.064 228.606 56.8934C226.891 57.7228 224.921 58.1375 222.696 58.1375ZM223.983 54.0702C224.841 54.0702 225.556 53.6236 226.128 52.7304C226.7 51.8372 227.129 50.7047 227.415 49.333C227.701 47.9294 227.844 46.5098 227.844 45.0743C227.844 43.7983 227.717 42.602 227.463 41.4855C227.24 40.3371 226.891 39.412 226.414 38.7102C225.937 37.9765 225.318 37.6096 224.555 37.6096C223.729 37.6096 223.014 38.0563 222.411 38.9495C221.839 39.8427 221.41 40.9751 221.124 42.3468C220.838 43.7186 220.695 45.1381 220.695 46.6055C220.695 47.8815 220.806 49.0938 221.028 50.2422C221.283 51.3587 221.648 52.2838 222.125 53.0175C222.601 53.7193 223.221 54.0702 223.983 54.0702Z" fill="#D53349"/>
<path d="M195.654 58.1375C193.271 58.1375 191.301 57.659 189.744 56.702C188.188 55.745 187.028 54.4849 186.265 52.9218C185.534 51.3268 185.169 49.6361 185.169 47.8496C185.169 46.1589 185.471 44.4682 186.075 42.7775C186.71 41.0868 187.616 39.5556 188.791 38.1839C189.999 36.7802 191.46 35.6637 193.176 34.8343C194.892 33.973 196.862 33.5424 199.086 33.5424C201.469 33.5424 203.423 34.0368 204.948 35.0257C206.505 35.9827 207.649 37.2587 208.38 38.8538C209.143 40.4488 209.524 42.1554 209.524 43.9738C209.524 45.6326 209.222 47.3073 208.618 48.9981C208.015 50.6569 207.109 52.1881 205.902 53.5917C204.726 54.9634 203.28 56.064 201.564 56.8934C199.849 57.7228 197.879 58.1375 195.654 58.1375ZM196.941 54.0702C197.799 54.0702 198.514 53.6236 199.086 52.7304C199.658 51.8372 200.087 50.7047 200.373 49.333C200.659 47.9294 200.802 46.5098 200.802 45.0743C200.802 43.7983 200.675 42.602 200.421 41.4855C200.198 40.3371 199.849 39.412 199.372 38.7102C198.895 37.9765 198.276 37.6096 197.513 37.6096C196.687 37.6096 195.972 38.0563 195.368 38.9495C194.797 39.8427 194.368 40.9751 194.082 42.3468C193.796 43.7186 193.653 45.1381 193.653 46.6055C193.653 47.8815 193.764 49.0938 193.986 50.2422C194.241 51.3587 194.606 52.2838 195.083 53.0175C195.559 53.7193 196.179 54.0702 196.941 54.0702Z" fill="#D53349"/>
<path d="M167.33 57.9939C166.186 57.9939 165.154 57.5154 164.232 56.5584C163.311 55.6014 162.85 54.0224 162.85 51.8212C162.85 50.0348 163.057 48.2803 163.47 46.5577C163.883 44.8351 164.344 43.0965 164.852 41.342C165.392 39.5556 165.837 37.7213 166.186 35.8392C166.568 33.9252 166.695 31.9154 166.568 29.81C165.71 29.9376 164.868 30.1609 164.042 30.4799C163.216 30.7989 162.405 31.2615 161.611 31.8676C161.611 29.8579 161.786 28.231 162.135 26.9868C162.485 25.7108 163.168 24.7857 164.185 24.2115C165.201 23.6373 166.711 23.3502 168.713 23.3502C169.793 23.3502 171 23.43 172.335 23.5895C173.669 23.749 175.036 23.9085 176.434 24.068C177.863 24.2275 179.214 24.3072 180.485 24.3072C181.724 24.3072 182.836 24.1956 183.821 23.9723C184.806 23.7171 185.569 23.2705 186.109 22.6324C186.744 23.0471 187.221 23.6214 187.539 24.3551C187.888 25.0569 188.063 25.8225 188.063 26.6519C188.063 27.5132 187.856 28.3586 187.443 29.188C187.062 29.9855 186.458 30.6554 185.632 31.1977C184.806 31.7081 183.726 31.9633 182.391 31.9633C180.993 31.9633 179.468 31.74 177.816 31.2934C176.164 30.8468 174.464 30.464 172.716 30.145C172.875 30.8468 172.986 31.5486 173.05 32.2504C173.145 32.9522 173.193 33.67 173.193 34.4037C173.193 35.2012 173.161 35.9987 173.097 36.7962C173.034 37.5618 172.938 38.3593 172.811 39.1887C173.479 38.8378 174.289 38.5188 175.242 38.2317C176.195 37.9446 177.164 37.7053 178.149 37.5139C179.166 37.3225 180.072 37.2268 180.866 37.2268C181.374 37.2268 181.819 37.2747 182.201 37.3704C182.518 38.0403 182.677 38.8538 182.677 39.8108C182.677 41.342 182.296 42.9051 181.533 44.5001L181.2 44.6437C180.024 44.0057 178.658 43.5112 177.101 43.1603C175.576 42.8094 173.971 42.5701 172.287 42.4425C171.969 44.2609 171.668 46.1111 171.382 47.9932C171.096 49.8753 170.953 51.8053 170.953 53.7831C170.953 54.1978 170.953 54.6285 170.953 55.0751C170.984 55.5217 171.016 55.9683 171.048 56.4149C169.999 57.4676 168.76 57.9939 167.33 57.9939Z" fill="#D53349"/>
<path d="M152.889 57.9939C151.872 57.9939 150.903 57.7706 149.981 57.324C149.092 56.8455 148.361 56.1118 147.789 55.1229C147.249 54.134 146.979 52.8739 146.979 51.3427C146.979 50.5133 147.058 49.4287 147.217 48.0889C147.376 46.7491 147.582 45.2817 147.837 43.6867C148.123 42.0916 148.409 40.4966 148.695 38.9016C148.059 38.9335 147.439 38.9973 146.836 39.093C146.264 39.1887 145.692 39.3004 145.12 39.428L145.025 39.093C145.66 38.3274 146.327 37.6734 147.026 37.1311C147.725 36.5888 148.456 36.1422 149.219 35.7913C149.632 33.6859 149.981 31.8676 150.267 30.3364C150.553 28.7733 150.696 27.8482 150.696 27.5611C150.696 27.0187 151.109 26.5721 151.935 26.2212C152.793 25.8703 153.747 25.6949 154.795 25.6949C155.717 25.6949 156.575 25.8703 157.369 26.2212C158.195 26.5721 158.751 27.1623 159.037 27.9917C158.846 28.1831 158.576 28.9009 158.227 30.145C157.877 31.3572 157.512 32.8406 157.131 34.5951C157.734 34.627 158.354 34.6589 158.989 34.6908C159.625 34.7227 160.276 34.7705 160.943 34.8343C161.007 35.0257 161.055 35.2331 161.086 35.4564C161.118 35.6797 161.134 35.9189 161.134 36.1741C161.134 36.6526 161.055 37.179 160.896 37.7532C160.769 38.2955 160.61 38.79 160.419 39.2366C159.657 39.1728 158.942 39.109 158.274 39.0452C157.607 38.9495 156.956 38.8857 156.32 38.8538C156.066 40.2255 155.828 41.5972 155.605 42.9689C155.415 44.3406 155.256 45.5847 155.129 46.7012C155.033 47.8178 154.986 48.695 154.986 49.333C154.986 50.6728 155.224 51.566 155.701 52.0126C156.209 52.4592 156.813 52.6825 157.512 52.6825C158.147 52.6825 158.719 52.5549 159.228 52.2997C159.736 52.0445 160.101 51.7415 160.324 51.3906L160.8 51.5341C160.61 52.842 160.101 53.9905 159.275 54.9794C158.449 55.9364 157.464 56.686 156.32 57.2283C155.176 57.7387 154.033 57.9939 152.889 57.9939Z" fill="#D53349"/>
<path d="M136.288 58.0418C135.176 58.0418 134.207 57.6749 133.38 56.9412C132.554 56.2075 132.141 55.0113 132.141 53.3525C132.141 53.1929 132.141 53.0334 132.141 52.8739C132.141 52.7144 132.157 52.5549 132.189 52.3954C131.236 54.3095 130.155 55.729 128.948 56.6541C127.772 57.5473 126.581 57.9939 125.373 57.9939C124.261 57.9939 123.213 57.6111 122.228 56.8455C121.243 56.048 120.448 54.8837 119.845 53.3525C119.241 51.8212 118.939 49.971 118.939 47.8018C118.939 45.5688 119.241 43.575 119.845 41.8205C120.48 40.066 121.306 38.5826 122.323 37.3704C123.34 36.1582 124.452 35.249 125.659 34.6429C126.867 34.0049 128.042 33.6859 129.186 33.6859C130.457 33.6859 131.601 34.0847 132.618 34.8822C133.635 35.6478 134.334 36.8759 134.715 38.5667C134.81 38.0244 134.874 37.5299 134.906 37.0833C134.969 36.6367 135.001 36.3336 135.001 36.1741C135.033 35.3128 135.462 34.6748 136.288 34.2601C137.146 33.8454 138.083 33.6381 139.1 33.6381C139.989 33.6381 140.831 33.8135 141.626 34.1644C142.42 34.5153 142.96 35.1055 143.246 35.9349L143.342 36.222C142.96 37.0833 142.579 38.1201 142.198 39.3323C141.816 40.5445 141.467 41.8205 141.149 43.1603C140.831 44.4682 140.577 45.7602 140.387 47.0362C140.196 48.2803 140.101 49.3809 140.101 50.3379C140.101 51.3906 140.212 52.1243 140.434 52.539C140.657 52.9218 140.927 53.1132 141.245 53.1132C141.785 53.1132 142.277 52.7304 142.722 51.9648L143.103 52.1562C143.103 53.2408 142.754 54.2297 142.055 55.1229C141.356 56.0161 140.482 56.7339 139.433 57.2762C138.385 57.7866 137.336 58.0418 136.288 58.0418ZM128.519 51.9648C129.345 51.9648 130.251 51.2311 131.236 49.7637C132.253 48.2644 133.126 46.127 133.857 43.3517C133.921 43.0646 133.984 42.7935 134.048 42.5382C134.111 42.2511 134.159 41.98 134.191 41.7248C133.682 40.5445 133.142 39.7151 132.57 39.2366C132.03 38.7262 131.49 38.471 130.95 38.471C130.155 38.471 129.409 38.9016 128.71 39.7629C128.042 40.5923 127.486 41.645 127.042 42.9211C126.629 44.1971 126.422 45.4731 126.422 46.7491C126.422 48.5036 126.613 49.8115 126.994 50.6728C127.407 51.5341 127.915 51.9648 128.519 51.9648Z" fill="#D53349"/>
<path d="M100.819 57.9939C99.6751 57.9939 98.6425 57.5154 97.721 56.5584C96.7996 55.6014 96.3389 54.0224 96.3389 51.8212C96.3389 50.0348 96.5454 48.2803 96.9585 46.5577C97.3715 44.8351 97.8322 43.0965 98.3406 41.342C98.8808 39.5556 99.3256 37.7213 99.6751 35.8392C100.056 33.9252 100.184 31.9154 100.056 29.81C99.1985 29.9376 98.3565 30.1609 97.5304 30.4799C96.7043 30.7989 95.894 31.2615 95.0997 31.8676C95.0997 29.8579 95.2744 28.231 95.6239 26.9868C95.9735 25.7108 96.6566 24.7857 97.6734 24.2115C98.6901 23.6373 100.199 23.3502 102.201 23.3502C103.281 23.3502 104.489 23.43 105.823 23.5895C107.158 23.749 108.524 23.9085 109.922 24.068C111.352 24.2275 112.702 24.3072 113.973 24.3072C115.213 24.3072 116.325 24.1956 117.31 23.9723C118.295 23.7171 119.057 23.2705 119.597 22.6324C120.233 23.0471 120.71 23.6214 121.027 24.3551C121.377 25.0569 121.552 25.8225 121.552 26.6519C121.552 27.5132 121.345 28.3586 120.932 29.188C120.551 29.9855 119.947 30.6554 119.121 31.1977C118.295 31.7081 117.214 31.9633 115.88 31.9633C114.482 31.9633 112.957 31.74 111.304 31.2934C109.652 30.8468 107.952 30.464 106.205 30.145C106.364 30.8468 106.475 31.5486 106.538 32.2504C106.634 32.9522 106.681 33.67 106.681 34.4037C106.681 35.2012 106.65 35.9987 106.586 36.7962C106.522 37.5618 106.427 38.3593 106.3 39.1887C106.967 38.8378 107.778 38.5188 108.731 38.2317C109.684 37.9446 110.653 37.7053 111.638 37.5139C112.655 37.3225 113.56 37.2268 114.355 37.2268C114.863 37.2268 115.308 37.2747 115.689 37.3704C116.007 38.0403 116.166 38.8538 116.166 39.8108C116.166 41.342 115.785 42.9051 115.022 44.5001L114.688 44.6437C113.513 44.0057 112.146 43.5112 110.59 43.1603C109.064 42.8094 107.46 42.5701 105.776 42.4425C105.458 44.2609 105.156 46.1111 104.87 47.9932C104.584 49.8753 104.441 51.8053 104.441 53.7831C104.441 54.1978 104.441 54.6285 104.441 55.0751C104.473 55.5217 104.505 55.9683 104.537 56.4149C103.488 57.4676 102.249 57.9939 100.819 57.9939Z" fill="#D53349"/>
<path fill-rule="evenodd" clip-rule="evenodd" d="M240.931 59.1402L240.913 59.1256C239.442 57.9341 238.373 56.3098 237.603 54.4548L237.593 54.4302L237.583 54.4053C236.805 52.4319 236.468 50.1868 236.468 47.7539C236.468 45.2389 236.826 42.8899 237.601 40.7506C238.335 38.7237 239.322 36.9199 240.6 35.3962L240.605 35.3907C241.854 33.9079 243.272 32.7002 244.875 31.8529L244.889 31.8455L244.903 31.8382C246.486 31.0234 248.157 30.5517 249.885 30.5517C251.165 30.5517 252.374 30.8218 253.486 31.3492C253.516 30.9139 253.531 30.5129 253.531 30.145C253.531 29.5309 253.49 29.082 253.435 28.7702C253.391 28.5239 253.347 28.4192 253.343 28.4075L252.959 27.7332V25.5189L253.707 24.6704C254.665 23.583 255.785 22.6975 257.084 22.1127C258.272 21.5616 259.536 21.2209 260.847 21.2209C262.579 21.2209 264.189 21.7953 265.499 22.9841C267.015 24.3238 267.591 26.1561 267.591 27.9917C267.591 28.9235 267.444 30.1156 267.215 31.4617C266.989 32.7909 266.716 34.3078 266.395 36.0109L266.394 36.0212C266.076 37.6777 265.743 39.3973 265.394 41.1799C265.085 42.888 264.824 44.5289 264.608 46.103L264.607 46.111C264.502 46.8634 264.426 47.5506 264.376 48.1749L267.782 50.6171V52.1562C267.782 53.8966 267.214 55.492 266.185 56.8695L266.169 56.8904L266.153 56.9111C265.213 58.1249 264.039 59.0934 262.673 59.8216C261.255 60.5779 259.73 60.9846 258.13 60.9846C256.402 60.9846 254.687 60.5027 253.314 59.2498L253.262 59.202L253.212 59.1516C252.917 58.8561 252.65 58.5423 252.408 58.2126C252.213 58.3962 252.013 58.572 251.807 58.7393L251.8 58.7446C250.121 60.1019 248.179 60.9846 246.024 60.9846C244.131 60.9846 242.419 60.3073 240.949 59.1544L240.931 59.1402ZM251.03 55.3415C251.042 55.3268 251.055 55.3122 251.067 55.2974C251.414 54.8916 251.747 54.4378 252.066 53.936C252.546 53.1804 252.994 52.316 253.412 51.3427C253.424 51.7633 253.456 52.179 253.506 52.5899C253.586 53.2389 253.713 53.8758 253.888 54.5009C254.021 54.9732 254.194 55.4079 254.408 55.8051C254.656 56.2664 254.96 56.677 255.318 57.0369C256.017 57.6749 256.955 57.9939 258.13 57.9939C259.211 57.9939 260.259 57.7228 261.276 57.1805C261.854 56.872 262.376 56.5119 262.841 56.1002C263.194 55.7882 263.514 55.4464 263.802 55.0751C264.072 54.713 264.288 54.3377 264.449 53.9494C264.453 53.9384 264.458 53.9275 264.462 53.9165C264.689 53.3568 264.803 52.7701 264.803 52.1562L264.469 51.9169C264.437 51.9988 264.396 52.0785 264.346 52.1562C264.267 52.2803 264.167 52.399 264.046 52.5124C263.947 52.6046 263.834 52.6932 263.707 52.7782C263.357 53.0015 263.008 53.1132 262.658 53.1132C262.284 53.1132 261.989 52.9367 261.771 52.5839C261.712 52.4866 261.658 52.3759 261.609 52.2519C261.419 51.6458 261.324 50.8483 261.324 49.8594C261.324 48.6791 261.435 47.2914 261.657 45.6964C261.88 44.0695 262.15 42.3787 262.467 40.6242C262.817 38.8378 263.151 37.1152 263.468 35.4564C263.786 33.7657 264.056 32.2663 264.279 30.9584C264.501 29.6505 264.612 28.6616 264.612 27.9917C264.612 26.7795 264.247 25.8544 263.516 25.2164C262.785 24.5465 261.895 24.2115 260.847 24.2115C260.053 24.2115 259.211 24.4189 258.321 24.8336C257.463 25.2164 256.669 25.8225 255.938 26.6519V26.939C256.319 27.6089 256.51 28.6776 256.51 30.145C256.51 31.1124 256.426 32.2115 256.259 33.4424C256.234 33.6321 256.206 33.8249 256.176 34.0209C256.037 35.072 255.871 36.1658 255.681 37.3025C255.611 37.7181 255.538 38.1395 255.461 38.5667C255.347 38.052 255.205 37.5787 255.034 37.1466C255.012 37.0909 254.99 37.0358 254.967 36.9814C254.895 36.8103 254.818 36.646 254.736 36.4885C254.372 35.7856 253.915 35.2182 253.364 34.7865C253.274 34.7133 253.184 34.6433 253.092 34.5766C252.142 33.8871 251.073 33.5424 249.885 33.5424C248.709 33.5424 247.502 33.8614 246.263 34.4994C245.055 35.1374 243.927 36.0784 242.879 37.3225C241.862 38.5347 241.036 40.0181 240.4 41.7726C239.765 43.5271 239.447 45.5209 239.447 47.7539C239.447 49.9232 239.749 51.7734 240.353 53.3046C240.988 54.8358 241.798 56.0002 242.783 56.7977C243.8 57.5952 244.88 57.9939 246.024 57.9939C247.327 57.9939 248.63 57.4676 249.933 56.4149C250.312 56.1062 250.678 55.7484 251.03 55.3415ZM249.893 51.7595C250.365 51.5461 250.864 51.1159 251.39 50.4689C251.43 50.4204 251.47 50.3707 251.509 50.3197C251.665 50.121 251.822 49.9038 251.982 49.668C252.999 48.1686 253.888 45.9835 254.651 43.1124L254.937 41.6291C254.449 40.4955 253.917 39.6856 253.34 39.1994C253.317 39.1793 253.293 39.1598 253.269 39.1409C253.243 39.1177 253.217 39.0952 253.191 39.0731C252.914 38.8366 252.641 38.6602 252.372 38.544C252.111 38.4315 251.854 38.3752 251.601 38.3752C250.806 38.3752 250.06 38.8219 249.361 39.7151C248.662 40.5764 248.09 41.6929 247.645 43.0646C247.232 44.4044 247.025 45.824 247.025 47.3233C247.025 48.7588 247.232 49.8913 247.645 50.7207C248.058 51.5182 248.582 51.9169 249.218 51.9169C249.436 51.9169 249.662 51.8644 249.893 51.7595ZM250.005 47.1743C250.59 46.0789 251.186 44.5303 251.746 42.4404L251.823 42.0436C251.768 41.9481 251.716 41.8644 251.667 41.7917C251.643 41.7555 251.62 41.723 251.599 41.6939C251.215 42.1939 250.825 42.9248 250.484 43.9697C250.182 44.9559 250.018 46.0199 250.005 47.1743Z" fill="#53180F"/>
<path fill-rule="evenodd" clip-rule="evenodd" d="M209.28 46.5694C209.248 46.995 209.232 47.4218 209.232 47.8496C209.232 50.0597 209.687 52.1776 210.601 54.1716L210.616 54.2046L210.632 54.2373C211.657 56.3381 213.219 58.0155 215.231 59.2526C217.379 60.5727 219.929 61.1281 222.696 61.1281C225.293 61.1281 227.717 60.6424 229.899 59.588C231.962 58.5906 233.742 57.2447 235.2 55.5444C236.63 53.8813 237.725 52.0392 238.458 50.0244L238.461 50.0159L238.464 50.0073C239.174 48.0196 239.545 46.004 239.545 43.9738C239.545 41.7283 239.072 39.5852 238.118 37.5811C237.133 35.4445 235.591 33.7399 233.576 32.4938C231.446 31.1231 228.895 30.5517 226.128 30.5517C223.523 30.5517 221.092 31.0566 218.906 32.1492C216.843 33.15 215.057 34.5111 213.579 36.2291L213.575 36.2332C212.173 37.8695 211.088 39.7034 210.33 41.7216L210.321 41.7449L210.313 41.7683C209.951 42.7812 209.678 43.8038 209.497 44.8342C209.461 45.4107 209.388 45.9891 209.28 46.5694ZM220.218 34.8343C218.502 35.6637 217.041 36.7802 215.833 38.1838C214.658 39.5556 213.752 41.0868 213.117 42.7775C212.513 44.4682 212.211 46.1589 212.211 47.8496C212.211 49.6361 212.576 51.3268 213.307 52.9218C214.07 54.4849 215.23 55.745 216.787 56.702C218.343 57.659 220.313 58.1375 222.696 58.1375C224.921 58.1375 226.891 57.7228 228.606 56.8934C230.322 56.064 231.768 54.9634 232.944 53.5917C234.151 52.1881 235.057 50.6569 235.66 48.9981C236.264 47.3073 236.566 45.6326 236.566 43.9738C236.566 42.1554 236.185 40.4488 235.422 38.8538C234.691 37.2587 233.547 35.9827 231.99 35.0257C230.465 34.0368 228.511 33.5424 226.128 33.5424C223.904 33.5424 221.934 33.973 220.218 34.8343ZM227.463 41.4855C227.717 42.602 227.844 43.7983 227.844 45.0743C227.844 46.5098 227.701 47.9294 227.415 49.333C227.129 50.7047 226.7 51.8372 226.128 52.7304C225.556 53.6236 224.841 54.0702 223.983 54.0702C223.221 54.0702 222.601 53.7193 222.125 53.0175C221.648 52.2838 221.283 51.3587 221.028 50.2422C220.806 49.0938 220.695 47.8815 220.695 46.6055C220.695 45.1381 220.838 43.7186 221.124 42.3468C221.41 40.9751 221.839 39.8427 222.411 38.9495C223.014 38.0562 223.729 37.6096 224.555 37.6096C225.318 37.6096 225.937 37.9765 226.414 38.7102C226.891 39.412 227.24 40.3371 227.463 41.4855ZM224.43 41.5706C224.286 41.9573 224.152 42.4166 224.039 42.9595C223.797 44.1205 223.674 45.3343 223.674 46.6055C223.674 47.6881 223.766 48.6919 223.943 49.6224C223.989 49.8188 224.037 49.9998 224.088 50.1662C224.239 49.7692 224.38 49.2935 224.498 48.7263C224.743 47.5227 224.865 46.3064 224.865 45.0743C224.865 43.9974 224.758 43.0266 224.559 42.1519L224.548 42.1043L224.539 42.0564C224.504 41.8797 224.468 41.7181 224.43 41.5706Z" fill="#53180F"/>
<path fill-rule="evenodd" clip-rule="evenodd" d="M189.744 56.702C191.301 57.659 193.271 58.1375 195.654 58.1375C197.879 58.1375 199.849 57.7228 201.564 56.8934C203.28 56.064 204.726 54.9634 205.902 53.5917C207.109 52.1881 208.015 50.6569 208.618 48.9981C209.222 47.3073 209.524 45.6326 209.524 43.9738C209.524 42.1554 209.143 40.4488 208.38 38.8538C207.649 37.2587 206.505 35.9827 204.948 35.0257C203.423 34.0368 201.469 33.5424 199.086 33.5424C196.862 33.5424 194.892 33.973 193.176 34.8343C191.46 35.6637 189.999 36.7802 188.791 38.1838C187.616 39.5556 186.71 41.0868 186.075 42.7775C185.471 44.4682 185.169 46.1589 185.169 47.8496C185.169 49.6361 185.534 51.3268 186.265 52.9218C187.028 54.4849 188.188 55.745 189.744 56.702ZM206.534 32.4938C204.404 31.1231 201.853 30.5517 199.086 30.5517C196.481 30.5517 194.05 31.0566 191.864 32.1492C189.8 33.15 188.015 34.5111 186.537 36.2291L186.533 36.2332C185.131 37.8695 184.046 39.7034 183.288 41.7216L183.279 41.7449L183.27 41.7683C182.558 43.7625 182.19 45.794 182.19 47.8496C182.19 50.0597 182.645 52.1776 183.559 54.1716L183.574 54.2046L183.59 54.2373C184.615 56.3381 186.176 58.0155 188.189 59.2526C190.337 60.5727 192.887 61.1281 195.654 61.1281C198.251 61.1281 200.675 60.6424 202.857 59.588C204.92 58.5906 206.7 57.2447 208.158 55.5444C209.588 53.8813 210.683 52.0392 211.416 50.0244L211.419 50.0159L211.422 50.0073C211.785 48.9924 212.059 47.9702 212.24 46.9425C212.277 46.3632 212.349 45.7838 212.457 45.2045C212.487 44.7949 212.503 44.3846 212.503 43.9738C212.503 41.7283 212.03 39.5852 211.076 37.5811C210.091 35.4445 208.549 33.7399 206.534 32.4938ZM199.086 52.7304C198.514 53.6236 197.799 54.0702 196.941 54.0702C196.179 54.0702 195.559 53.7193 195.083 53.0175C194.606 52.2838 194.24 51.3587 193.986 50.2422C193.764 49.0938 193.653 47.8815 193.653 46.6055C193.653 45.1381 193.796 43.7186 194.082 42.3468C194.368 40.9751 194.797 39.8427 195.368 38.9495C195.972 38.0562 196.687 37.6096 197.513 37.6096C198.276 37.6096 198.895 37.9765 199.372 38.7102C199.849 39.412 200.198 40.3371 200.421 41.4855C200.675 42.602 200.802 43.7983 200.802 45.0743C200.802 46.5098 200.659 47.9294 200.373 49.333C200.087 50.7047 199.658 51.8372 199.086 52.7304ZM197.388 41.5706C197.244 41.9573 197.11 42.4166 196.997 42.9595C196.755 44.1205 196.631 45.3343 196.631 46.6055C196.631 47.6881 196.724 48.6919 196.901 49.6224C196.947 49.8188 196.995 49.9998 197.046 50.1662C197.197 49.7692 197.337 49.2935 197.456 48.7263C197.701 47.5227 197.823 46.3064 197.823 45.0743C197.823 43.9974 197.716 43.0266 197.517 42.1519L197.506 42.1043L197.496 42.0564C197.462 41.8797 197.426 41.7181 197.388 41.5706Z" fill="#53180F"/>
<path fill-rule="evenodd" clip-rule="evenodd" d="M161.997 40.4899L162.002 40.4733C162.509 38.7948 162.928 37.0677 163.258 35.291L163.262 35.2718L163.266 35.2527C163.333 34.9159 163.391 34.5746 163.44 34.2286C163.431 34.2352 163.422 34.2419 163.413 34.2486L161.131 35.99C161.125 35.803 161.11 35.6252 161.086 35.4564C161.055 35.2331 161.007 35.0257 160.943 34.8343C160.276 34.7705 159.625 34.7227 158.989 34.6908C158.87 34.6848 158.751 34.6788 158.632 34.6728V31.8676C158.632 30.599 158.696 29.407 158.841 28.3117C158.914 28.1565 158.979 28.0498 159.037 27.9917C159.005 27.8979 158.969 27.8071 158.93 27.7194C159.019 27.1806 159.13 26.6678 159.266 26.1837C159.797 24.2519 160.926 22.6208 162.724 21.6049C164.401 20.658 166.519 20.3596 168.713 20.3596C169.935 20.3596 171.262 20.4495 172.687 20.6198C174.015 20.7785 175.375 20.9372 176.766 21.096C178.099 21.2446 179.338 21.3166 180.485 21.3166C181.528 21.3166 182.399 21.2242 183.117 21.0657C183.609 20.932 183.779 20.7668 183.839 20.6956L185.536 18.6916L187.732 20.125C188.861 20.8613 189.698 21.8787 190.238 23.0889C190.782 24.2094 191.042 25.4117 191.042 26.6519C191.042 28.0045 190.715 29.2979 190.118 30.504C189.474 31.8407 188.481 32.9009 187.262 33.7008L187.228 33.7232L187.193 33.7447C186.292 34.3016 185.299 34.6351 184.268 34.8066L184.286 34.8111L184.89 36.0846C185.445 37.255 185.656 38.5331 185.656 39.8108C185.656 41.8547 185.145 43.8581 184.219 45.7943L183.735 46.8066L181.05 47.9619L179.783 47.2746C178.889 46.7894 177.789 46.3804 176.448 46.0783L176.442 46.0769L176.435 46.0754C175.888 45.9494 175.327 45.8389 174.751 45.7442C174.606 46.6364 174.464 47.5364 174.326 48.4442C174.064 50.1714 173.931 51.9504 173.931 53.7831V54.9681L174.116 57.564L173.154 58.5296C171.57 60.1199 169.582 60.9846 167.33 60.9846C165.249 60.9846 163.476 60.0761 162.091 58.637C160.856 57.3547 160.249 55.6843 160.006 53.9182C160.365 53.2742 160.614 52.5752 160.753 51.8212C160.771 51.7264 160.786 51.6307 160.8 51.5341L160.324 51.3906C160.227 51.5432 160.103 51.6867 159.953 51.8212C159.926 51.8446 159.899 51.8677 159.872 51.8905C159.871 51.8674 159.871 51.8443 159.871 51.8212C159.871 49.801 160.105 47.8115 160.574 45.8577C160.998 44.0883 161.471 42.3046 161.992 40.5066L161.997 40.4899ZM170.953 55.0751V53.7831C170.953 51.8053 171.096 49.8753 171.382 47.9932C171.645 46.262 171.921 44.5578 172.211 42.8805C172.236 42.7343 172.262 42.5883 172.287 42.4425C172.506 42.4591 172.723 42.4775 172.939 42.4979C174.386 42.6341 175.774 42.8549 177.101 43.1603C178.658 43.5112 180.024 44.0057 181.2 44.6437L181.533 44.5001C181.816 43.9099 182.045 43.3241 182.223 42.7426C182.307 42.4671 182.38 42.1926 182.441 41.919C182.598 41.2097 182.677 40.5069 182.677 39.8108C182.677 38.8538 182.518 38.0403 182.201 37.3704C181.819 37.2747 181.374 37.2268 180.866 37.2268C180.072 37.2268 179.166 37.3225 178.149 37.5139C177.414 37.6568 176.688 37.8263 175.971 38.0224C175.727 38.0891 175.484 38.1589 175.242 38.2317C174.289 38.5188 173.479 38.8378 172.811 39.1887C172.938 38.3593 173.034 37.5618 173.097 36.7962C173.124 36.4562 173.146 36.1162 173.161 35.7763C173.182 35.3187 173.193 34.8612 173.193 34.4037C173.193 34.0223 173.18 33.6452 173.154 33.2725C173.13 32.9281 173.095 32.5874 173.05 32.2504C172.986 31.5486 172.875 30.8468 172.716 30.145C173.786 30.3403 174.838 30.5595 175.872 30.8026C176.527 30.9566 177.175 31.1202 177.816 31.2934C179.468 31.74 180.993 31.9633 182.391 31.9633C183.726 31.9633 184.806 31.7081 185.632 31.1977C186.458 30.6554 187.062 29.9855 187.443 29.188C187.856 28.3586 188.063 27.5132 188.063 26.6519C188.063 26.1178 187.99 25.6101 187.845 25.1289C187.765 24.8628 187.663 24.6049 187.539 24.3551C187.358 23.9386 187.127 23.5736 186.844 23.2599C186.629 23.0209 186.384 22.8118 186.109 22.6325C185.569 23.2705 184.806 23.7171 183.821 23.9723C182.836 24.1956 181.724 24.3072 180.485 24.3072C179.214 24.3072 177.863 24.2275 176.434 24.068C175.036 23.9085 173.669 23.749 172.335 23.5895C171 23.43 169.793 23.3502 168.713 23.3502C166.711 23.3502 165.201 23.6373 164.185 24.2115C163.168 24.7857 162.485 25.7108 162.135 26.9868C162.033 27.3516 161.945 27.7493 161.873 28.1798C161.698 29.2178 161.611 30.4471 161.611 31.8676C162.271 31.3637 162.943 30.9591 163.625 30.6536C163.764 30.5916 163.902 30.5337 164.042 30.4799C164.239 30.4038 164.437 30.3331 164.636 30.2678C165.271 30.0598 165.915 29.9072 166.568 29.81C166.63 30.8445 166.631 31.8559 166.571 32.8441C166.509 33.8672 166.38 34.8656 166.186 35.8392C165.837 37.7213 165.392 39.5556 164.852 41.342C164.344 43.0965 163.883 44.8351 163.47 46.5577C163.057 48.2803 162.85 50.0348 162.85 51.8212C162.85 54.0224 163.311 55.6014 164.232 56.5584C165.154 57.5154 166.186 57.9939 167.33 57.9939C168.76 57.9939 169.999 57.4676 171.048 56.4149L170.953 55.0751ZM176.166 33.9522C176.17 34.1023 176.171 34.2528 176.171 34.4037C176.171 34.5642 176.17 34.7247 176.168 34.8852C176.637 34.7725 177.108 34.6701 177.583 34.5778L177.592 34.5761L177.6 34.5745C177.805 34.536 178.008 34.5005 178.209 34.4681C177.823 34.3829 177.433 34.2872 177.041 34.1812C176.751 34.1028 176.46 34.0265 176.166 33.9522Z" fill="#53180F"/>
<path fill-rule="evenodd" clip-rule="evenodd" d="M142.092 39.6734L143.027 42.9586L145.02 42.5138L144.9 43.1855L144.895 43.2142C144.636 44.8413 144.424 46.349 144.259 47.7354C144.094 49.1297 144 50.3454 144 51.3427C144 53.2046 144.325 55.0017 145.177 56.5609L145.195 56.593L145.213 56.6246C146.026 58.03 147.138 59.1873 148.575 59.9602L148.63 59.9899L148.686 60.0173C150.009 60.6583 151.421 60.9846 152.889 60.9846C154.487 60.9846 156.042 60.6254 157.53 59.9612L157.561 59.9473L157.592 59.9326C159.109 59.2133 160.428 58.2101 161.526 56.938L161.542 56.9197L161.558 56.9012C162.215 56.1144 162.732 55.2536 163.109 54.33C162.937 53.6138 162.851 52.7823 162.85 51.8353C162.85 51.8306 162.85 51.8259 162.85 51.8212C162.85 50.8986 162.905 49.9845 163.016 49.079L159.021 47.8758L157.967 49.5379C157.966 49.4737 157.965 49.4055 157.965 49.333C157.965 48.8273 158.003 48.0615 158.093 46.9987C158.215 45.9313 158.368 44.7375 158.551 43.4157C158.622 42.9754 158.696 42.5352 158.77 42.0948C159.219 42.1356 159.687 42.1763 160.172 42.2169L162.311 42.3959L163.157 40.4146C163.417 39.8049 163.623 39.1618 163.782 38.4951C163.987 37.7394 164.113 36.9595 164.113 36.1741C164.113 35.7955 164.089 35.4136 164.035 35.0334C163.981 34.653 163.896 34.2688 163.769 33.8886L163.156 32.0417L161.226 31.8571C161.101 31.8452 160.977 31.8339 160.854 31.823C160.933 31.5248 161.011 31.2427 161.088 30.9765L161.091 30.9667L161.094 30.9568C161.245 30.4185 161.365 30.04 161.455 29.7939L161.703 29.5446C161.77 28.7757 161.872 28.0862 162.011 27.4759L161.852 27.0134C161.284 25.3671 160.12 24.1486 158.55 23.4756C157.36 22.9531 156.097 22.7042 154.795 22.7042C153.412 22.7042 152.07 22.9367 150.812 23.4516L150.793 23.4592L150.775 23.4669C149.659 23.9408 147.759 25.1106 147.718 27.4824C147.717 27.4964 147.715 27.5168 147.711 27.5443C147.699 27.6466 147.678 27.7993 147.646 28.0116C147.58 28.4336 147.479 29.0231 147.339 29.7908C147.12 30.9631 146.863 32.3073 146.568 33.8241C146.099 34.1094 145.645 34.4233 145.205 34.7647C144.466 35.3377 143.775 35.9934 143.129 36.7214C143.051 36.9107 142.973 37.1073 142.895 37.3112C142.663 37.9197 142.43 38.5934 142.198 39.3323C142.162 39.4454 142.127 39.5591 142.092 39.6734ZM149.219 35.7913C149.148 35.8239 149.078 35.8573 149.007 35.8915C148.856 35.9654 148.705 36.0431 148.556 36.1247C148.03 36.4123 147.521 36.7478 147.026 37.1311C146.878 37.2466 146.73 37.3672 146.584 37.4928C146.58 37.4963 146.576 37.4998 146.572 37.5034C146.043 37.9599 145.533 38.4831 145.041 39.0729C145.036 39.0796 145.03 39.0863 145.025 39.093L145.12 39.428C145.201 39.41 145.281 39.3923 145.362 39.375C145.438 39.3585 145.515 39.3423 145.592 39.3263C146.006 39.2402 146.421 39.1624 146.836 39.093C147.347 39.012 147.869 38.9539 148.402 38.9186C148.499 38.9122 148.597 38.9065 148.695 38.9016L147.837 43.6867C147.582 45.2817 147.376 46.7491 147.217 48.0889C147.058 49.4287 146.979 50.5133 146.979 51.3427C146.979 52.8739 147.249 54.134 147.789 55.1229C148.361 56.1118 149.092 56.8455 149.981 57.324C150.903 57.7706 151.872 57.9939 152.889 57.9939C154.033 57.9939 155.176 57.7387 156.32 57.2283C157.215 56.8041 158.013 56.2528 158.713 55.5747C158.908 55.3861 159.096 55.1876 159.275 54.9794C159.448 54.7732 159.606 54.5602 159.75 54.3402C159.847 54.1939 159.937 54.0445 160.021 53.8921C160.084 53.7765 160.144 53.6591 160.201 53.54C160.476 52.9618 160.668 52.3419 160.778 51.6805C160.786 51.632 160.793 51.5832 160.8 51.5341L160.324 51.3906C160.31 51.4131 160.295 51.4354 160.279 51.4576C160.054 51.7802 159.703 52.0609 159.228 52.2997C158.719 52.5549 158.147 52.6825 157.512 52.6825C157.432 52.6825 157.354 52.6796 157.277 52.6739C156.677 52.6288 156.151 52.4084 155.701 52.0126C155.224 51.566 154.986 50.6728 154.986 49.333C154.986 48.695 155.033 47.8177 155.129 46.7012C155.256 45.5847 155.415 44.3406 155.605 42.9689C155.828 41.5972 156.066 40.2255 156.32 38.8538C156.956 38.8857 157.607 38.9495 158.274 39.0452C158.942 39.109 159.657 39.1728 160.419 39.2366C160.61 38.79 160.769 38.2955 160.896 37.7532C161.055 37.179 161.134 36.6526 161.134 36.1741C161.134 35.9189 161.118 35.6797 161.086 35.4564C161.055 35.2331 161.007 35.0257 160.943 34.8343C160.674 34.8086 160.408 34.7854 160.144 34.7649C159.753 34.7345 159.368 34.7098 158.989 34.6908C158.354 34.6589 157.734 34.627 157.131 34.5951C157.368 33.5041 157.599 32.518 157.823 31.6367C157.96 31.1006 158.095 30.6034 158.227 30.145C158.576 28.9009 158.846 28.1831 159.037 27.9917C158.751 27.1623 158.195 26.5721 157.369 26.2212C157.314 26.1971 157.259 26.1737 157.204 26.1512C157.074 26.0983 156.942 26.05 156.809 26.0063C156.175 25.7987 155.504 25.6949 154.795 25.6949C153.747 25.6949 152.793 25.8703 151.936 26.2212C151.109 26.5721 150.696 27.0187 150.696 27.561C150.696 27.8481 150.553 28.7733 150.267 30.3364C149.981 31.8676 149.632 33.6859 149.219 35.7913Z" fill="#53180F"/>
<path fill-rule="evenodd" clip-rule="evenodd" d="M133.38 56.9412C134.207 57.6749 135.176 58.0418 136.288 58.0418C137.336 58.0418 138.385 57.7866 139.433 57.2762C140.066 56.9489 140.635 56.5576 141.141 56.1025C141.176 56.0712 141.21 56.0395 141.245 56.0076C141.537 55.7348 141.807 55.4399 142.055 55.1229C142.747 54.2385 143.096 53.2602 143.103 52.188C143.103 52.1774 143.103 52.1668 143.103 52.1562L142.722 51.9648C142.683 52.0315 142.644 52.0953 142.605 52.1562C142.191 52.7942 141.738 53.1132 141.245 53.1132C140.927 53.1132 140.657 52.9218 140.434 52.539C140.377 52.4324 140.327 52.3048 140.285 52.1562C140.173 51.7645 140.112 51.2268 140.102 50.5429C140.102 50.5399 140.102 50.537 140.102 50.5341C140.101 50.47 140.101 50.4046 140.101 50.3379C140.101 49.3809 140.196 48.2803 140.387 47.0362C140.577 45.7602 140.832 44.4682 141.149 43.1603C141.467 41.8205 141.816 40.5445 142.198 39.3323C142.579 38.12 142.96 37.0833 143.342 36.222L143.246 35.9349C142.96 35.1055 142.42 34.5153 141.626 34.1644C140.832 33.8135 139.989 33.6381 139.1 33.6381C138.083 33.6381 137.146 33.8454 136.288 34.2601C136.239 34.2846 136.192 34.3098 136.146 34.3359C135.412 34.7509 135.031 35.3637 135.001 36.1741C135.001 36.3336 134.969 36.6367 134.906 37.0833C134.9 37.1591 134.894 37.2364 134.887 37.315C134.851 37.6992 134.794 38.1165 134.715 38.5667C134.615 38.1251 134.494 37.7151 134.351 37.3367C134.33 37.2803 134.308 37.2246 134.286 37.1696C134.268 37.1242 134.249 37.0793 134.23 37.0348C134.222 37.0175 134.215 37.0003 134.207 36.9831C134.14 36.8294 134.069 36.6815 133.994 36.5393C133.927 36.413 133.857 36.2913 133.783 36.1741C133.774 36.1586 133.764 36.1431 133.754 36.1278C133.434 35.6269 133.056 35.2117 132.618 34.8822C132.504 34.7928 132.389 34.7085 132.271 34.6292C131.343 34.0003 130.315 33.6859 129.186 33.6859C128.042 33.6859 126.867 34.0049 125.659 34.6429C124.452 35.249 123.34 36.1582 122.323 37.3704C121.306 38.5826 120.48 40.066 119.845 41.8205C119.241 43.575 118.939 45.5688 118.939 47.8018C118.939 49.971 119.241 51.8212 119.845 53.3524C120.448 54.8837 121.243 56.048 122.228 56.8455C123.213 57.6111 124.261 57.9939 125.373 57.9939C126.581 57.9939 127.772 57.5473 128.948 56.6541C129.147 56.5015 129.343 56.3354 129.535 56.1558C130.137 55.5941 130.704 54.9007 131.238 54.0756C131.388 53.8449 131.534 53.6038 131.678 53.3524C131.767 53.1969 131.855 53.0374 131.943 52.8739C132.026 52.718 132.108 52.5585 132.189 52.3954C132.157 52.5549 132.141 52.7144 132.141 52.8739V53.3524C132.141 54.8004 132.456 55.8959 133.085 56.639C133.177 56.7472 133.275 56.848 133.38 56.9412ZM131.029 58.8148C130.938 58.8887 130.847 58.9609 130.755 59.0316L130.75 59.0352L130.746 59.0389C129.17 60.2363 127.363 60.9846 125.373 60.9846C123.522 60.9846 121.845 60.3303 120.404 59.2103L120.381 59.1921L120.358 59.1735C118.871 57.9695 117.813 56.3259 117.075 54.4532C116.297 52.4798 115.96 50.2347 115.96 47.8018C115.96 45.3018 116.298 42.969 117.029 40.844L117.037 40.8211L117.045 40.7984C117.779 38.7716 118.767 36.9677 120.045 35.444C121.272 33.9808 122.684 32.7981 124.299 31.9821C125.844 31.1702 127.484 30.6952 129.186 30.6952C130.942 30.6952 132.568 31.2066 133.994 32.1883C134.3 31.9506 134.625 31.7511 134.956 31.5852L134.976 31.5752L134.996 31.5655C136.284 30.9429 137.667 30.6474 139.1 30.6474C140.392 30.6474 141.643 30.9048 142.826 31.427C144.385 32.1159 145.506 33.3473 146.061 34.9566L146.067 34.9728L146.533 36.3766L146.064 37.4366C145.942 37.7109 145.818 38.0128 145.691 38.3431C145.465 38.5799 145.243 38.8299 145.025 39.093L145.12 39.428C145.185 39.4134 145.25 39.3991 145.315 39.385C145.224 39.6533 145.132 39.9358 145.038 40.2328C144.68 41.3711 144.35 42.5774 144.047 43.853L144.045 43.861L144.043 43.8689C143.746 45.0931 143.509 46.2966 143.333 47.4798L143.332 47.4854L143.331 47.4909C143.257 47.9757 143.2 48.4252 143.159 48.8407L146.082 50.3079V52.1562C146.082 53.9442 145.487 55.5773 144.397 56.9706C143.423 58.2159 142.21 59.2044 140.798 59.9348L140.766 59.9514L140.733 59.9672C139.325 60.6526 137.835 61.0324 136.288 61.0324C134.455 61.0324 132.782 60.403 131.407 59.1812C131.274 59.063 131.148 58.9407 131.029 58.8148ZM132.541 39.2094C132.551 39.2184 132.561 39.2274 132.57 39.2366C133.142 39.7151 133.682 40.5445 134.191 41.7248C134.159 41.98 134.111 42.2511 134.048 42.5382C133.984 42.7934 133.921 43.0646 133.857 43.3517C133.126 46.127 132.253 48.2643 131.236 49.7637C130.819 50.3842 130.417 50.8735 130.029 51.2316C130.01 51.249 129.991 51.266 129.972 51.2828C129.675 51.5488 129.385 51.737 129.104 51.8474C128.905 51.9257 128.71 51.9648 128.519 51.9648C127.915 51.9648 127.407 51.5341 126.994 50.6728C126.613 49.8115 126.422 48.5036 126.422 46.7491C126.422 45.4731 126.629 44.1971 127.042 42.921C127.486 41.645 128.042 40.5923 128.71 39.7629C129.409 38.9016 130.155 38.4709 130.95 38.4709C131.18 38.4709 131.411 38.5175 131.642 38.6105C131.897 38.7135 132.153 38.8737 132.408 39.091C132.453 39.1288 132.497 39.1683 132.541 39.2094ZM130.89 41.8215C130.535 42.3077 130.182 42.9751 129.864 43.877C129.55 44.8588 129.401 45.8129 129.401 46.7491C129.401 46.8337 129.401 46.916 129.402 46.9962C129.939 45.9316 130.47 44.5015 130.963 42.6426C131.001 42.4693 131.04 42.2999 131.08 42.1349C131.02 42.0282 130.964 41.935 130.911 41.8541C130.904 41.8429 130.897 41.8321 130.89 41.8215Z" fill="#53180F"/>
<path fill-rule="evenodd" clip-rule="evenodd" d="M95.4852 40.4899L95.4903 40.4733C95.9978 38.7948 96.4169 37.0677 96.7468 35.291L96.7503 35.2718L96.7542 35.2527C96.8213 34.9159 96.8794 34.5746 96.9285 34.2286C96.9197 34.2352 96.9109 34.2419 96.9021 34.2486L92.1209 37.8968V31.8676C92.1209 29.7214 92.3034 27.7943 92.7544 26.1842C93.2859 24.2521 94.414 22.6209 96.213 21.6049C97.8897 20.658 100.008 20.3596 102.201 20.3596C103.423 20.3596 104.751 20.4495 106.176 20.6198C107.503 20.7785 108.863 20.9372 110.255 21.096C111.588 21.2446 112.827 21.3166 113.973 21.3166C115.016 21.3166 115.887 21.2242 116.606 21.0657C117.098 20.932 117.267 20.7668 117.328 20.6956L119.024 18.6916L121.221 20.125C122.349 20.8613 123.187 21.8787 123.727 23.0888C124.271 24.2093 124.53 25.4117 124.53 26.6519C124.53 28.0047 124.204 29.2982 123.607 30.5044C122.962 31.8409 121.969 32.901 120.751 33.7008L120.717 33.7232L120.682 33.7447C119.781 34.3016 118.787 34.6351 117.757 34.8066L117.775 34.8111L118.379 36.0846C118.934 37.255 119.145 38.5331 119.145 39.8108C119.145 41.8547 118.633 43.8581 117.707 45.7943L117.223 46.8066L114.538 47.9619L113.272 47.2746C112.378 46.7894 111.277 46.3804 109.937 46.0783L109.931 46.0769L109.924 46.0754C109.377 45.9494 108.815 45.8389 108.24 45.7442C108.094 46.6364 107.953 47.5364 107.815 48.4442C107.553 50.1714 107.42 51.9504 107.42 53.7831V54.9681L107.605 57.564L106.643 58.5296C105.059 60.1199 103.071 60.9846 100.819 60.9846C98.7378 60.9846 96.9649 60.0761 95.5793 58.637C93.8621 56.8535 93.36 54.3193 93.36 51.8212C93.36 49.801 93.5939 47.8115 94.0624 45.8577C94.4867 44.0883 94.9594 42.3046 95.4804 40.5066L95.4852 40.4899ZM104.441 55.0751V53.7831C104.441 51.8053 104.584 49.8753 104.87 47.9932C105.133 46.262 105.41 44.5578 105.7 42.8806C105.725 42.7343 105.75 42.5883 105.776 42.4425C105.994 42.4591 106.211 42.4775 106.427 42.4979C107.875 42.6341 109.262 42.8549 110.59 43.1603C112.146 43.5112 113.513 44.0057 114.688 44.6437L115.022 44.5001C115.304 43.9099 115.534 43.3241 115.712 42.7426C115.796 42.4671 115.869 42.1926 115.929 41.919C116.087 41.2097 116.166 40.5069 116.166 39.8108C116.166 38.8538 116.007 38.0403 115.689 37.3704C115.308 37.2747 114.863 37.2268 114.355 37.2268C113.56 37.2268 112.655 37.3225 111.638 37.5139C110.903 37.6568 110.177 37.8263 109.459 38.0224C109.215 38.0891 108.973 38.1589 108.731 38.2317C107.778 38.5188 106.967 38.8378 106.3 39.1887C106.427 38.3593 106.522 37.5618 106.586 36.7962C106.613 36.4562 106.634 36.1162 106.65 35.7763C106.671 35.3187 106.681 34.8612 106.681 34.4037C106.681 34.0223 106.668 33.6452 106.643 33.2725C106.619 32.9281 106.584 32.5874 106.538 32.2504C106.475 31.5486 106.364 30.8468 106.205 30.145C107.275 30.3403 108.327 30.5595 109.361 30.8026C110.016 30.9566 110.664 31.1202 111.304 31.2934C112.957 31.74 114.482 31.9633 115.88 31.9633C117.214 31.9633 118.295 31.7081 119.121 31.1977C119.947 30.6554 120.551 29.9855 120.932 29.188C121.345 28.3586 121.552 27.5132 121.552 26.6519C121.552 26.1178 121.479 25.6101 121.334 25.1289C121.254 24.8628 121.152 24.6049 121.027 24.3551C120.847 23.9386 120.615 23.5736 120.333 23.2599C120.117 23.0209 119.872 22.8118 119.597 22.6325C119.057 23.2705 118.295 23.7171 117.31 23.9723C116.325 24.1956 115.213 24.3072 113.973 24.3072C112.702 24.3072 111.352 24.2275 109.922 24.068C108.524 23.9085 107.158 23.749 105.823 23.5895C104.489 23.43 103.281 23.3502 102.201 23.3502C100.199 23.3502 98.6901 23.6373 97.6734 24.2115C96.6566 24.7857 95.9735 25.7108 95.6239 26.9868C95.5215 27.3516 95.434 27.7493 95.3616 28.1798C95.187 29.2179 95.0997 30.4471 95.0997 31.8676C95.76 31.3637 96.4314 30.9591 97.1137 30.6536C97.2522 30.5916 97.391 30.5337 97.5304 30.4799C97.7276 30.4038 97.9258 30.3331 98.1248 30.2678C98.7595 30.0598 99.4033 29.9072 100.056 29.81C100.119 30.8445 100.12 31.8559 100.06 32.8441C99.9973 33.8672 99.8691 34.8656 99.6751 35.8392C99.3256 37.7213 98.8808 39.5556 98.3406 41.342C97.8322 43.0965 97.3715 44.8351 96.9585 46.5577C96.5454 48.2803 96.3389 50.0348 96.3389 51.8212C96.3389 54.0224 96.7996 55.6014 97.721 56.5584C98.6425 57.5154 99.6751 57.9939 100.819 57.9939C102.249 57.9939 103.488 57.4676 104.537 56.4149L104.441 55.0751ZM109.655 33.9522C109.658 34.1023 109.66 34.2528 109.66 34.4037C109.66 34.5642 109.659 34.7247 109.657 34.8852C110.125 34.7725 110.597 34.6701 111.072 34.5778L111.081 34.5761L111.089 34.5745C111.294 34.536 111.497 34.5005 111.698 34.4681C111.311 34.3829 110.922 34.2872 110.53 34.1812C110.24 34.1028 109.948 34.0265 109.655 33.9522Z" fill="#53180F"/>
<defs>
<clipPath id="clip0_4002_87">
<rect width="79.6833" height="80" fill="white" transform="translate(0.218506)"/>
</clipPath>
</defs>
</svg>
